<?xml version="1.0" encoding="utf-8"?>
<!-- Generator: Adobe Illustrator 21.0.0, SVG Export Plug-In . SVG Version: 6.00 Build 0)  -->
<svg version="1.1" id="Layer_1" xmlns="http://www.w3.org/2000/svg" xmlns:xlink="http://www.w3.org/1999/xlink" x="0px" y="0px"
	 viewBox="0 0 1615.4 394.6" style="enable-background:new 0 0 1615.4 394.6;" xml:space="preserve">
<style type="text/css">
	.st0{fill:#FFFFFF;}
	.st1{fill:#FF0000;}
	.st2{fill:none;stroke:#000000;stroke-miterlimit:10;}
	.st3{stroke:#000000;}
	.st4{stroke:#000000;stroke-miterlimit:10;}
	.st5{fill:#FFFFFF;stroke:#FFFFFF;}
	.st6{fill:#FF0000;stroke:#FF0000;}
	.st7{fill:#FFFFFF;stroke:#FF0000;stroke-width:0.5;stroke-miterlimit:10;}
	.st8{fill:#FFFFFF;stroke:#000000;stroke-miterlimit:10;}
	.st9{fill:#FFFFFF;stroke:#FFFFFF;stroke-miterlimit:10;}
	.st10{fill:#FFFFFF;stroke:#000000;stroke-width:0.5;stroke-miterlimit:10;}
	.st11{stroke:#FFFFFF;stroke-width:0.5;stroke-miterlimit:10;}
	.st12{fill:#E6E6E6;}
	.st13{fill:none;stroke:#CCCCCC;stroke-miterlimit:10;}
	.st14{fill:#FF0000;stroke:#FF0000;stroke-width:0.5;stroke-miterlimit:10;}
</style>
<g>
	<g>
		<path class="st0" d="M459.5,212.3c0.3,0,0.5,0.1,0.7,0.1c9.2,0,16.6-7.5,16.6-16.8c0-9.3-7.5-16.8-16.6-16.8c0,0-0.1,0-0.1,0H314
			V47.1h145.4c0.3,0,0.5,0.1,0.8,0.1c9.2,0,16.6-7.5,16.6-16.8c0-9.3-7.5-16.8-16.6-16.8H294c-9.2,0-16.6,7.5-16.6,16.8v333.7
			c0,9.3,7.5,16.8,16.6,16.8h166.2v0c0.1,0,0.1,0,0.2,0c9.1,0,16.5-7.4,16.5-16.6c0-9.2-7.4-16.6-16.5-16.6c-0.1,0-0.1,0-0.2,0v0
			H314V212.3H459.5z"/>
		<path class="st0" d="M460.4,381.4H294c-9.5,0-17.1-7.7-17.1-17.3V30.4c0-9.5,7.7-17.3,17.1-17.3h166.2c9.5,0,17.1,7.7,17.1,17.3
			c0,9.5-7.7,17.3-17.1,17.3c-0.2,0-0.4,0-0.5,0c-0.1,0-0.2,0-0.3,0l-144.9,0v130.8h145.7c0,0,0,0,0,0c9.5,0,17.2,7.7,17.2,17.2
			c0,9.5-7.7,17.3-17.1,17.3c-0.2,0-0.3,0-0.5,0c-0.1,0-0.2,0-0.3,0h-145v134.4l146.3,0c9.2,0.2,16.6,7.8,16.6,17.1
			C477.4,373.7,469.8,381.4,460.4,381.4z M294,14.2c-8.9,0-16.1,7.3-16.1,16.3v333.7c0,9,7.2,16.3,16.1,16.3h165.7l0.5,0l0.1,0
			c0,0,0,0,0,0c8.8,0,16-7.2,16-16.1c0-8.9-7.2-16.1-16-16.1c-0.1,0-0.1,0-0.2,0l-146.8,0V211.8h146c0.1,0,0.3,0,0.4,0
			c0.1,0,0.2,0,0.3,0c8.9,0,16.1-7.3,16.1-16.3c0-9-7.2-16.3-16.1-16.3l-146.8,0V46.6h145.9c0.2,0,0.3,0,0.4,0c0.1,0,0.3,0,0.4,0
			c8.9,0,16.1-7.3,16.1-16.3c0-9-7.2-16.3-16.1-16.3H294z"/>
	</g>
	<g>
		<path class="st0" d="M696.8,13.7H526.5c-9.2,0-16.6,7.5-16.6,16.7c0,9.2,7.4,16.7,16.6,16.7h67.1v315.4c0,10.2,8.2,18.4,18.3,18.4
			c10.1,0,18.3-8.2,18.3-18.4h0V47.1h66.7c9.2,0,16.6-7.5,16.6-16.7C713.4,21.2,706,13.7,696.8,13.7z"/>
		<path class="st0" d="M611.9,381.4c-10.3,0-18.8-8.5-18.8-18.9V47.6h-66.6c-9.4,0-17.1-7.7-17.1-17.2s7.7-17.2,17.1-17.2h170.4
			c9.4,0,17.1,7.7,17.1,17.2s-7.7,17.2-17.1,17.2h-66.2V363h-0.1C630.4,373.2,622,381.4,611.9,381.4z M526.5,14.2
			c-8.9,0-16.1,7.3-16.1,16.2s7.2,16.2,16.1,16.2h67.6v315.9c0,9.9,8,17.9,17.8,17.9s17.8-8,17.8-17.9l0-315.9h67.2
			c8.9,0,16.1-7.3,16.1-16.2s-7.2-16.2-16.1-16.2H526.5z"/>
	</g>
	<g>
		<path class="st0" d="M958,35.3c-12.5-8.6-27.6-14.5-45.2-17.9c-7.4-1.3-15.5-2.3-24.3-2.9c-7.1-0.5-15.2-0.7-24.5-0.7h-84.9
			c-0.1,0-0.1,0-0.2,0c-9.2,0-16.6,7.5-16.6,16.7c0,0.2,0,0.3,0,0.5V362c0,0.2,0,0.3,0,0.5c0,10.2,8.2,18.4,18.3,18.4
			c10.1,0,18.3-8.2,18.3-18.4h0.1V233.2h65c9.3,0,17.5-0.2,24.5-0.7c8.8-0.6,16.9-1.6,24.3-2.9c17.6-3.2,32.7-9.1,45.2-17.7
			c30.2-20.8,45.2-50.3,45.2-88.4C1003.3,85.3,988.2,55.9,958,35.3z M924.6,190.6c-9.1,4.4-19.3,7.1-30.6,8.2l-15.6,1h-79.4V47.1
			h79.4l15.6,1c11.2,1.1,21.4,4,30.6,8.5c28.2,13.4,42.4,35.7,42.4,66.9S952.8,177,924.6,190.6z"/>
		<path class="st0" d="M780.6,381.4c-10.4,0-18.8-8.5-18.8-18.9c0-0.1,0-0.2,0-0.3c0-0.1,0-0.1,0-0.2V30.9c0,0,0-0.1,0-0.2
			c0-0.1,0-0.2,0-0.3c0-9.5,7.7-17.2,17.1-17.2l85,0c9.3,0,17.5,0.2,24.6,0.7c8.8,0.6,17,1.6,24.4,2.9c17.6,3.4,32.9,9.5,45.4,18v0
			c30.2,20.7,45.5,50.5,45.5,88.6c0,38.1-15.3,68-45.5,88.8c-12.5,8.6-27.8,14.5-45.4,17.8c-7.4,1.3-15.6,2.3-24.4,2.9
			c-7,0.5-15.3,0.7-24.6,0.7h-64.5V363h-0.1C799.1,373.2,790.8,381.4,780.6,381.4z M778.9,14.2c-8.9,0-16.1,7.3-16.1,16.2
			c0,0.1,0,0.1,0,0.2c0,0.1,0,0.2,0,0.3V362c0,0.1,0,0.2,0,0.3c0,0.1,0,0.1,0,0.2c0,9.9,8,17.9,17.8,17.9s17.8-8,17.8-17.9V362h0.1
			V232.7h65.5c9.3,0,17.5-0.2,24.5-0.7c8.8-0.6,16.9-1.6,24.3-2.9c17.5-3.2,32.6-9.1,45-17.6c29.9-20.6,45-50.3,45-88
			c0-37.8-15.1-67.3-45-87.8v0c-12.4-8.5-27.6-14.5-45.1-17.9c-7.3-1.3-15.5-2.3-24.2-2.9c-7-0.5-15.3-0.7-24.5-0.7H779L778.9,14.2
			C778.9,14.2,778.9,14.2,778.9,14.2z M798.9,200.3h-0.5V46.6h79.9l15.7,1c11.3,1.1,21.6,4,30.8,8.5c28.3,13.4,42.6,36.1,42.6,67.3
			c0,31.2-14.3,54-42.6,67.6l0,0c-9.2,4.4-19.5,7.2-30.7,8.3l-15.7,1L798.9,200.3z M799.4,199.3h78.9l15.6-1
			c11.1-1.1,21.3-3.9,30.4-8.2c27.9-13.4,42.1-35.8,42.1-66.7c0-30.8-14.2-53.2-42.1-66.4c-9.1-4.5-19.3-7.3-30.4-8.4l-15.6-1
			l-78.9,0V199.3z"/>
	</g>
	<g>
		<path class="st0" d="M185.2,13.7c-10.1,0-18.3,8.1-18.3,18.1h0v229.7c0,12.5-0.5,22.9-1.4,31.2c-1.4,11.1-4,20.4-7.7,27.8
			c-9,18.4-25.6,27.6-49.8,27.6c-34.7,0-55.2-15.1-61.6-45.3l0,0c-1.8-7.8-8.9-13.7-17.3-13.7c-9.8,0-17.8,7.9-17.8,17.6
			c0,2.6,0.6,5,1.6,7.2c4.7,16,13.1,29.9,25.4,41.3c18.4,17.1,41.6,25.7,69.3,25.7c42.5,0,71.4-17.5,86.6-52.4
			c4.2-9.2,6.9-20.5,8.2-33.8l1-17.6l0.2-245.3l0-0.1C203.5,21.8,195.3,13.7,185.2,13.7z"/>
		<path class="st0" d="M107.5,381.4c-27.8,0-51.2-8.7-69.6-25.8c-12.2-11.3-20.8-25.3-25.6-41.6c-1-2.3-1.6-4.8-1.6-7.3
			c0-10,8.2-18.1,18.3-18.1c8.4,0,15.6,5.5,17.7,13.5l0,0l0.1,0.5c6.3,29.8,26.9,44.9,61.1,44.9c23.9,0,40.5-9.2,49.4-27.3
			c3.6-7.4,6.2-16.7,7.7-27.7c1-8.2,1.4-18.7,1.4-31.1V31.3h0c0.3-10,8.6-18.1,18.8-18.1c10.4,0,18.8,8.3,18.8,18.6l0,0.1
			l-0.2,245.2l-1,17.6c-1.3,13.3-4.1,24.8-8.2,34C179.3,363.7,150,381.4,107.5,381.4z M29,289.6c-9.5,0-17.3,7.7-17.3,17.1
			c0,2.4,0.5,4.7,1.5,6.9c4.8,16.2,13.3,30,25.3,41.2c18.3,17,41.5,25.6,69,25.6c42.1,0,71.1-17.5,86.2-52.1
			c4.1-9.1,6.9-20.4,8.1-33.6l1-17.6L203,31.8l0-0.1c0-9.6-8-17.5-17.8-17.5c-9.8,0-17.8,7.9-17.8,17.6l0,229.7
			c0,12.5-0.5,23-1.4,31.2c-1.4,11.1-4.1,20.5-7.7,28c-9,18.5-25.9,27.9-50.3,27.9c-34.7,0-55.5-15.3-62.1-45.4l-0.1-0.3
			C44,295,37.1,289.6,29,289.6z"/>
	</g>
	<g>
		<path class="st0" d="M1595.9,41.8c2-2.9,3.1-6.4,3.1-10.1c0-9.9-8-18-17.9-18c-7.8,0-14.4,5.1-16.8,12.2l-100.5,193.7l-99-196.1
			l-0.1,0.1c-2.9-5.8-8.9-9.9-15.9-9.9c-9.9,0-17.9,8-17.9,18c0,2.5,0.5,5,1.5,7.1l0,0L1446,258.3v104.2h0
			c0,10.2,8.2,18.4,18.3,18.4c10.1,0,18.3-8.2,18.3-18.4c0-0.1,0-0.2,0-0.3V258.3L1595.9,41.8z"/>
		<path class="st0" d="M1464.4,381.4c-10.2,0-18.5-8.2-18.8-18.4h0l0-0.5v-104L1331.8,38.6l0.1,0c-0.9-2.2-1.3-4.5-1.3-6.9
			c0-10.2,8.2-18.5,18.4-18.5c6.7,0,12.9,3.7,16.1,9.7l0.1-0.1l0.2,0.4l98.6,195.2l100.1-192.9c2.5-7.4,9.5-12.4,17.3-12.4
			c10.1,0,18.4,8.3,18.4,18.5c0,3.7-1.1,7.3-3.2,10.4l-113.3,216.4v103.7c0,0.2,0,0.2,0,0.3C1483.1,372.9,1474.7,381.4,1464.4,381.4
			z M1446.5,362l0,0.5c0,9.9,8,17.9,17.8,17.9s17.8-8,17.8-17.9c0-0.2,0-0.2,0-0.3v-104l0.1-0.1l113.4-216.6c2-2.9,3-6.3,3-9.8
			c0-9.6-7.8-17.5-17.4-17.5c-7.4,0-13.9,4.7-16.3,11.8l-101,194.7l-99.2-196.5l-0.1,0.1l-0.2-0.4c-3-5.9-8.9-9.6-15.4-9.6
			c-9.6,0-17.4,7.8-17.4,17.5c0,2.4,0.5,4.7,1.4,6.9l0.2,0.4l0,0l113.4,219.2V362z"/>
	</g>
	<path class="st0" d="M1336.6,351.5L1336.6,351.5l-136-319l-0.1-0.3c-4.7-11.1-15.6-18.8-28.3-18.8s-23.6,7.8-28.3,18.8l-0.2,0.4
		l-136,320.7c-1.1,2.5-1.8,5.2-1.8,8c0,9.9,7.3,18,16.8,19.3c0.9,0.1,1.8,0.3,2.8,0.3l0,0c0,0,0,0,0,0c0.8,0,1.5-0.1,2.2-0.2
		c0.5-0.1,1.1-0.1,1.6-0.2c4.4-0.9,8.2-3.3,11-6.5l132.2-144.6l131,145.1l0.1,0c3.7,3.9,8.9,6.3,14.6,6.3c11.2,0,20.3-9.2,20.3-20.4
		C1338.7,357.1,1337.9,354.2,1336.6,351.5z M1172.7,174.9l-100.3,117l14.8-34.5h0.1l13.9-33.2h-0.3l71.5-168.6l66.6,160.3h0
		l20.2,47.6l10.7,24.9L1172.7,174.9z"/>
</g>
</svg>
