<?xml version="1.0" encoding="UTF-8" standalone="no"?>
<svg width="250px" height="250px" viewBox="0 0 250 250" version="1.1" xmlns="http://www.w3.org/2000/svg" xmlns:xlink="http://www.w3.org/1999/xlink">
    <!-- Generator: Sketch 39.1 (31720) - http://www.bohemiancoding.com/sketch -->
    <title>qrcode-feature</title>
    <desc>Created with Sketch.</desc>
    <defs>
        <filter x="-50%" y="-50%" width="200%" height="200%" filterUnits="objectBoundingBox" id="filter-2">
            <feOffset dx="0" dy="1" in="SourceAlpha" result="shadowOffsetOuter1"></feOffset>
            <feGaussianBlur stdDeviation="2" in="shadowOffsetOuter1" result="shadowBlurOuter1"></feGaussianBlur>
            <feComposite in="shadowBlurOuter1" in2="SourceAlpha" operator="out" result="shadowBlurOuter1"></feComposite>
            <feColorMatrix values="0 0 0 0 0.784313725   0 0 0 0 0.807843137   0 0 0 0 0.823529412  0 0 0 0.4 0" type="matrix" in="shadowBlurOuter1"></feColorMatrix>
        </filter>
        <mask id="mask-3" maskContentUnits="userSpaceOnUse" maskUnits="objectBoundingBox" x="0" y="0" width="242" height="242" fill="white">
            <use xlink:href="#path-1"></use>
        </mask>
        <polyline id="path-4" points="18 18 87 18 87 87"></polyline>
        <mask id="mask-5" maskContentUnits="userSpaceOnUse" maskUnits="objectBoundingBox" x="0" y="0" width="69" height="69" fill="white">
            <use xlink:href="#path-4"></use>
        </mask>
        <polyline id="path-6" points="155 18 224 18 224 87"></polyline>
        <mask id="mask-7" maskContentUnits="userSpaceOnUse" maskUnits="objectBoundingBox" x="0" y="0" width="69" height="69" fill="white">
            <use xlink:href="#path-6"></use>
        </mask>
        <polyline id="path-8" points="18 155 87 155 87 224"></polyline>
        <mask id="mask-9" maskContentUnits="userSpaceOnUse" maskUnits="objectBoundingBox" x="0" y="0" width="69" height="69" fill="white">
            <use xlink:href="#path-8"></use>
        </mask>
        <polyline id="path-10" points="155 155 224 155 224 224"></polyline>
        <mask id="mask-11" maskContentUnits="userSpaceOnUse" maskUnits="objectBoundingBox" x="0" y="0" width="69" height="69" fill="white">
            <use xlink:href="#path-10"></use>
        </mask>
    </defs>
    <g id="Footer-Links" stroke="none" stroke-width="1" fill="none" fill-rule="evenodd">
        <g id="Features-(Footer)---QR-Codes" transform="translate(-291.000000, -594.000000)">
            <g id="qrcode-feature" transform="translate(295.000000, 597.000000)">
                <g id="Background">
                    <use fill="black" fill-opacity="1" filter="url(#filter-2)" xlink:href="#path-1"></use>
                    <use stroke="#D9DDE2" mask="url(#mask-3)" stroke-width="2" fill="#FFFFFF" fill-rule="evenodd" xlink:href="#path-1"></use>
                </g>
                <use id="Red-Lines" stroke="#E77273" mask="url(#mask-5)" stroke-width="8" stroke-linecap="round" stroke-linejoin="round" transform="translate(52.500000, 52.500000) rotate(-90.000000) translate(-52.500000, -52.500000) " xlink:href="#path-4"></use>
                <use id="Red-Lines" stroke="#E77273" mask="url(#mask-7)" stroke-width="8" stroke-linecap="round" stroke-linejoin="round" transform="translate(189.500000, 52.500000) scale(-1, 1) rotate(-90.000000) translate(-189.500000, -52.500000) " xlink:href="#path-6"></use>
                <use id="Red-Lines" stroke="#E77273" mask="url(#mask-9)" stroke-width="8" stroke-linecap="round" stroke-linejoin="round" transform="translate(52.500000, 189.500000) scale(1, -1) rotate(-90.000000) translate(-52.500000, -189.500000) " xlink:href="#path-8"></use>
                <use id="Red-Lines" stroke="#E77273" mask="url(#mask-11)" stroke-width="8" stroke-linecap="round" stroke-linejoin="round" transform="translate(189.500000, 189.500000) scale(-1, -1) rotate(-90.000000) translate(-189.500000, -189.500000) " xlink:href="#path-10"></use>
                <g id="Formsite" transform="translate(33.000000, 33.000000)" fill="#000000">
                    <rect id="Rectangle-path" x="0" y="0" width="7" height="7"></rect>
                    <rect id="Rectangle-path" x="7" y="0" width="7" height="7"></rect>
                    <rect id="Rectangle-path" x="14" y="0" width="7" height="7"></rect>
                    <rect id="Rectangle-path" x="21" y="0" width="7" height="7"></rect>
                    <rect id="Rectangle-path" x="28" y="0" width="7" height="7"></rect>
                    <rect id="Rectangle-path" x="35" y="0" width="7" height="7"></rect>
                    <rect id="Rectangle-path" x="42" y="0" width="7" height="7"></rect>
                    <rect id="Rectangle-path" x="56" y="0" width="7" height="7"></rect>
                    <rect id="Rectangle-path" x="77" y="0" width="7" height="7"></rect>
                    <rect id="Rectangle-path" x="84" y="0" width="7" height="7"></rect>
                    <rect id="Rectangle-path" x="91" y="0" width="7" height="7"></rect>
                    <rect id="Rectangle-path" x="126" y="0" width="7" height="7"></rect>
                    <rect id="Rectangle-path" x="133" y="0" width="7" height="7"></rect>
                    <rect id="Rectangle-path" x="140" y="0" width="7" height="7"></rect>
                    <rect id="Rectangle-path" x="147" y="0" width="7" height="7"></rect>
                    <rect id="Rectangle-path" x="154" y="0" width="7" height="7"></rect>
                    <rect id="Rectangle-path" x="161" y="0" width="7" height="7"></rect>
                    <rect id="Rectangle-path" x="168" y="0" width="7" height="7"></rect>
                    <rect id="Rectangle-path" x="0" y="7" width="7" height="7"></rect>
                    <rect id="Rectangle-path" x="42" y="7" width="7" height="7"></rect>
                    <rect id="Rectangle-path" x="63" y="7" width="7" height="7"></rect>
                    <rect id="Rectangle-path" x="70" y="7" width="7" height="7"></rect>
                    <rect id="Rectangle-path" x="91" y="7" width="7" height="7"></rect>
                    <rect id="Rectangle-path" x="112" y="7" width="7" height="7"></rect>
                    <rect id="Rectangle-path" x="126" y="7" width="7" height="7"></rect>
                    <rect id="Rectangle-path" x="168" y="7" width="7" height="7"></rect>
                    <rect id="Rectangle-path" x="0" y="14" width="7" height="7"></rect>
                    <rect id="Rectangle-path" x="14" y="14" width="7" height="7"></rect>
                    <rect id="Rectangle-path" x="21" y="14" width="7" height="7"></rect>
                    <rect id="Rectangle-path" x="28" y="14" width="7" height="7"></rect>
                    <rect id="Rectangle-path" x="42" y="14" width="7" height="7"></rect>
                    <rect id="Rectangle-path" x="70" y="14" width="7" height="7"></rect>
                    <rect id="Rectangle-path" x="84" y="14" width="7" height="7"></rect>
                    <rect id="Rectangle-path" x="91" y="14" width="7" height="7"></rect>
                    <rect id="Rectangle-path" x="105" y="14" width="7" height="7"></rect>
                    <rect id="Rectangle-path" x="112" y="14" width="7" height="7"></rect>
                    <rect id="Rectangle-path" x="126" y="14" width="7" height="7"></rect>
                    <rect id="Rectangle-path" x="140" y="14" width="7" height="7"></rect>
                    <rect id="Rectangle-path" x="147" y="14" width="7" height="7"></rect>
                    <rect id="Rectangle-path" x="154" y="14" width="7" height="7"></rect>
                    <rect id="Rectangle-path" x="168" y="14" width="7" height="7"></rect>
                    <rect id="Rectangle-path" x="0" y="21" width="7" height="7"></rect>
                    <rect id="Rectangle-path" x="14" y="21" width="7" height="7"></rect>
                    <rect id="Rectangle-path" x="21" y="21" width="7" height="7"></rect>
                    <rect id="Rectangle-path" x="28" y="21" width="7" height="7"></rect>
                    <rect id="Rectangle-path" x="42" y="21" width="7" height="7"></rect>
                    <rect id="Rectangle-path" x="84" y="21" width="7" height="7"></rect>
                    <rect id="Rectangle-path" x="91" y="21" width="7" height="7"></rect>
                    <rect id="Rectangle-path" x="105" y="21" width="7" height="7"></rect>
                    <rect id="Rectangle-path" x="112" y="21" width="7" height="7"></rect>
                    <rect id="Rectangle-path" x="126" y="21" width="7" height="7"></rect>
                    <rect id="Rectangle-path" x="140" y="21" width="7" height="7"></rect>
                    <rect id="Rectangle-path" x="147" y="21" width="7" height="7"></rect>
                    <rect id="Rectangle-path" x="154" y="21" width="7" height="7"></rect>
                    <rect id="Rectangle-path" x="168" y="21" width="7" height="7"></rect>
                    <rect id="Rectangle-path" x="0" y="28" width="7" height="7"></rect>
                    <rect id="Rectangle-path" x="14" y="28" width="7" height="7"></rect>
                    <rect id="Rectangle-path" x="21" y="28" width="7" height="7"></rect>
                    <rect id="Rectangle-path" x="28" y="28" width="7" height="7"></rect>
                    <rect id="Rectangle-path" x="42" y="28" width="7" height="7"></rect>
                    <rect id="Rectangle-path" x="63" y="28" width="7" height="7"></rect>
                    <rect id="Rectangle-path" x="77" y="28" width="7" height="7"></rect>
                    <rect id="Rectangle-path" x="98" y="28" width="7" height="7"></rect>
                    <rect id="Rectangle-path" x="112" y="28" width="7" height="7"></rect>
                    <rect id="Rectangle-path" x="126" y="28" width="7" height="7"></rect>
                    <rect id="Rectangle-path" x="140" y="28" width="7" height="7"></rect>
                    <rect id="Rectangle-path" x="147" y="28" width="7" height="7"></rect>
                    <rect id="Rectangle-path" x="154" y="28" width="7" height="7"></rect>
                    <rect id="Rectangle-path" x="168" y="28" width="7" height="7"></rect>
                    <rect id="Rectangle-path" x="0" y="35" width="7" height="7"></rect>
                    <rect id="Rectangle-path" x="42" y="35" width="7" height="7"></rect>
                    <rect id="Rectangle-path" x="70" y="35" width="7" height="7"></rect>
                    <rect id="Rectangle-path" x="84" y="35" width="7" height="7"></rect>
                    <rect id="Rectangle-path" x="98" y="35" width="7" height="7"></rect>
                    <rect id="Rectangle-path" x="126" y="35" width="7" height="7"></rect>
                    <rect id="Rectangle-path" x="168" y="35" width="7" height="7"></rect>
                    <rect id="Rectangle-path" x="0" y="42" width="7" height="7"></rect>
                    <rect id="Rectangle-path" x="7" y="42" width="7" height="7"></rect>
                    <rect id="Rectangle-path" x="14" y="42" width="7" height="7"></rect>
                    <rect id="Rectangle-path" x="21" y="42" width="7" height="7"></rect>
                    <rect id="Rectangle-path" x="28" y="42" width="7" height="7"></rect>
                    <rect id="Rectangle-path" x="35" y="42" width="7" height="7"></rect>
                    <rect id="Rectangle-path" x="42" y="42" width="7" height="7"></rect>
                    <rect id="Rectangle-path" x="56" y="42" width="7" height="7"></rect>
                    <rect id="Rectangle-path" x="70" y="42" width="7" height="7"></rect>
                    <rect id="Rectangle-path" x="84" y="42" width="7" height="7"></rect>
                    <rect id="Rectangle-path" x="98" y="42" width="7" height="7"></rect>
                    <rect id="Rectangle-path" x="112" y="42" width="7" height="7"></rect>
                    <rect id="Rectangle-path" x="126" y="42" width="7" height="7"></rect>
                    <rect id="Rectangle-path" x="133" y="42" width="7" height="7"></rect>
                    <rect id="Rectangle-path" x="140" y="42" width="7" height="7"></rect>
                    <rect id="Rectangle-path" x="147" y="42" width="7" height="7"></rect>
                    <rect id="Rectangle-path" x="154" y="42" width="7" height="7"></rect>
                    <rect id="Rectangle-path" x="161" y="42" width="7" height="7"></rect>
                    <rect id="Rectangle-path" x="168" y="42" width="7" height="7"></rect>
                    <rect id="Rectangle-path" x="56" y="49" width="7" height="7"></rect>
                    <rect id="Rectangle-path" x="70" y="49" width="7" height="7"></rect>
                    <rect id="Rectangle-path" x="77" y="49" width="7" height="7"></rect>
                    <rect id="Rectangle-path" x="91" y="49" width="7" height="7"></rect>
                    <rect id="Rectangle-path" x="105" y="49" width="7" height="7"></rect>
                    <rect id="Rectangle-path" x="0" y="56" width="7" height="7"></rect>
                    <rect id="Rectangle-path" x="7" y="56" width="7" height="7"></rect>
                    <rect id="Rectangle-path" x="21" y="56" width="7" height="7"></rect>
                    <rect id="Rectangle-path" x="28" y="56" width="7" height="7"></rect>
                    <rect id="Rectangle-path" x="42" y="56" width="7" height="7"></rect>
                    <rect id="Rectangle-path" x="63" y="56" width="7" height="7"></rect>
                    <rect id="Rectangle-path" x="70" y="56" width="7" height="7"></rect>
                    <rect id="Rectangle-path" x="77" y="56" width="7" height="7"></rect>
                    <rect id="Rectangle-path" x="105" y="56" width="7" height="7"></rect>
                    <rect id="Rectangle-path" x="126" y="56" width="7" height="7"></rect>
                    <rect id="Rectangle-path" x="168" y="56" width="7" height="7"></rect>
                    <rect id="Rectangle-path" x="0" y="63" width="7" height="7"></rect>
                    <rect id="Rectangle-path" x="14" y="63" width="7" height="7"></rect>
                    <rect id="Rectangle-path" x="21" y="63" width="7" height="7"></rect>
                    <rect id="Rectangle-path" x="56" y="63" width="7" height="7"></rect>
                    <rect id="Rectangle-path" x="63" y="63" width="7" height="7"></rect>
                    <rect id="Rectangle-path" x="84" y="63" width="7" height="7"></rect>
                    <rect id="Rectangle-path" x="91" y="63" width="7" height="7"></rect>
                    <rect id="Rectangle-path" x="98" y="63" width="7" height="7"></rect>
                    <rect id="Rectangle-path" x="105" y="63" width="7" height="7"></rect>
                    <rect id="Rectangle-path" x="119" y="63" width="7" height="7"></rect>
                    <rect id="Rectangle-path" x="133" y="63" width="7" height="7"></rect>
                    <rect id="Rectangle-path" x="140" y="63" width="7" height="7"></rect>
                    <rect id="Rectangle-path" x="147" y="63" width="7" height="7"></rect>
                    <rect id="Rectangle-path" x="154" y="63" width="7" height="7"></rect>
                    <rect id="Rectangle-path" x="161" y="63" width="7" height="7"></rect>
                    <rect id="Rectangle-path" x="0" y="70" width="7" height="7"></rect>
                    <rect id="Rectangle-path" x="7" y="70" width="7" height="7"></rect>
                    <rect id="Rectangle-path" x="42" y="70" width="7" height="7"></rect>
                    <rect id="Rectangle-path" x="49" y="70" width="7" height="7"></rect>
                    <rect id="Rectangle-path" x="56" y="70" width="7" height="7"></rect>
                    <rect id="Rectangle-path" x="70" y="70" width="7" height="7"></rect>
                    <rect id="Rectangle-path" x="77" y="70" width="7" height="7"></rect>
                    <rect id="Rectangle-path" x="91" y="70" width="7" height="7"></rect>
                    <rect id="Rectangle-path" x="105" y="70" width="7" height="7"></rect>
                    <rect id="Rectangle-path" x="112" y="70" width="7" height="7"></rect>
                    <rect id="Rectangle-path" x="126" y="70" width="7" height="7"></rect>
                    <rect id="Rectangle-path" x="133" y="70" width="7" height="7"></rect>
                    <rect id="Rectangle-path" x="147" y="70" width="7" height="7"></rect>
                    <rect id="Rectangle-path" x="168" y="70" width="7" height="7"></rect>
                    <rect id="Rectangle-path" x="7" y="77" width="7" height="7"></rect>
                    <rect id="Rectangle-path" x="63" y="77" width="7" height="7"></rect>
                    <rect id="Rectangle-path" x="70" y="77" width="7" height="7"></rect>
                    <rect id="Rectangle-path" x="77" y="77" width="7" height="7"></rect>
                    <rect id="Rectangle-path" x="84" y="77" width="7" height="7"></rect>
                    <rect id="Rectangle-path" x="133" y="77" width="7" height="7"></rect>
                    <rect id="Rectangle-path" x="147" y="77" width="7" height="7"></rect>
                    <rect id="Rectangle-path" x="154" y="77" width="7" height="7"></rect>
                    <rect id="Rectangle-path" x="161" y="77" width="7" height="7"></rect>
                    <rect id="Rectangle-path" x="168" y="77" width="7" height="7"></rect>
                    <rect id="Rectangle-path" x="7" y="84" width="7" height="7"></rect>
                    <rect id="Rectangle-path" x="14" y="84" width="7" height="7"></rect>
                    <rect id="Rectangle-path" x="28" y="84" width="7" height="7"></rect>
                    <rect id="Rectangle-path" x="42" y="84" width="7" height="7"></rect>
                    <rect id="Rectangle-path" x="49" y="84" width="7" height="7"></rect>
                    <rect id="Rectangle-path" x="56" y="84" width="7" height="7"></rect>
                    <rect id="Rectangle-path" x="63" y="84" width="7" height="7"></rect>
                    <rect id="Rectangle-path" x="77" y="84" width="7" height="7"></rect>
                    <rect id="Rectangle-path" x="84" y="84" width="7" height="7"></rect>
                    <rect id="Rectangle-path" x="112" y="84" width="7" height="7"></rect>
                    <rect id="Rectangle-path" x="119" y="84" width="7" height="7"></rect>
                    <rect id="Rectangle-path" x="126" y="84" width="7" height="7"></rect>
                    <rect id="Rectangle-path" x="168" y="84" width="7" height="7"></rect>
                    <rect id="Rectangle-path" x="0" y="91" width="7" height="7"></rect>
                    <rect id="Rectangle-path" x="21" y="91" width="7" height="7"></rect>
                    <rect id="Rectangle-path" x="28" y="91" width="7" height="7"></rect>
                    <rect id="Rectangle-path" x="35" y="91" width="7" height="7"></rect>
                    <rect id="Rectangle-path" x="49" y="91" width="7" height="7"></rect>
                    <rect id="Rectangle-path" x="56" y="91" width="7" height="7"></rect>
                    <rect id="Rectangle-path" x="91" y="91" width="7" height="7"></rect>
                    <rect id="Rectangle-path" x="98" y="91" width="7" height="7"></rect>
                    <rect id="Rectangle-path" x="105" y="91" width="7" height="7"></rect>
                    <rect id="Rectangle-path" x="112" y="91" width="7" height="7"></rect>
                    <rect id="Rectangle-path" x="140" y="91" width="7" height="7"></rect>
                    <rect id="Rectangle-path" x="161" y="91" width="7" height="7"></rect>
                    <rect id="Rectangle-path" x="0" y="98" width="7" height="7"></rect>
                    <rect id="Rectangle-path" x="7" y="98" width="7" height="7"></rect>
                    <rect id="Rectangle-path" x="14" y="98" width="7" height="7"></rect>
                    <rect id="Rectangle-path" x="28" y="98" width="7" height="7"></rect>
                    <rect id="Rectangle-path" x="42" y="98" width="7" height="7"></rect>
                    <rect id="Rectangle-path" x="56" y="98" width="7" height="7"></rect>
                    <rect id="Rectangle-path" x="70" y="98" width="7" height="7"></rect>
                    <rect id="Rectangle-path" x="77" y="98" width="7" height="7"></rect>
                    <rect id="Rectangle-path" x="84" y="98" width="7" height="7"></rect>
                    <rect id="Rectangle-path" x="105" y="98" width="7" height="7"></rect>
                    <rect id="Rectangle-path" x="112" y="98" width="7" height="7"></rect>
                    <rect id="Rectangle-path" x="119" y="98" width="7" height="7"></rect>
                    <rect id="Rectangle-path" x="140" y="98" width="7" height="7"></rect>
                    <rect id="Rectangle-path" x="147" y="98" width="7" height="7"></rect>
                    <rect id="Rectangle-path" x="154" y="98" width="7" height="7"></rect>
                    <rect id="Rectangle-path" x="161" y="98" width="7" height="7"></rect>
                    <rect id="Rectangle-path" x="168" y="98" width="7" height="7"></rect>
                    <rect id="Rectangle-path" x="0" y="105" width="7" height="7"></rect>
                    <rect id="Rectangle-path" x="21" y="105" width="7" height="7"></rect>
                    <rect id="Rectangle-path" x="28" y="105" width="7" height="7"></rect>
                    <rect id="Rectangle-path" x="49" y="105" width="7" height="7"></rect>
                    <rect id="Rectangle-path" x="56" y="105" width="7" height="7"></rect>
                    <rect id="Rectangle-path" x="63" y="105" width="7" height="7"></rect>
                    <rect id="Rectangle-path" x="77" y="105" width="7" height="7"></rect>
                    <rect id="Rectangle-path" x="105" y="105" width="7" height="7"></rect>
                    <rect id="Rectangle-path" x="112" y="105" width="7" height="7"></rect>
                    <rect id="Rectangle-path" x="133" y="105" width="7" height="7"></rect>
                    <rect id="Rectangle-path" x="140" y="105" width="7" height="7"></rect>
                    <rect id="Rectangle-path" x="154" y="105" width="7" height="7"></rect>
                    <rect id="Rectangle-path" x="168" y="105" width="7" height="7"></rect>
                    <rect id="Rectangle-path" x="0" y="112" width="7" height="7"></rect>
                    <rect id="Rectangle-path" x="14" y="112" width="7" height="7"></rect>
                    <rect id="Rectangle-path" x="35" y="112" width="7" height="7"></rect>
                    <rect id="Rectangle-path" x="42" y="112" width="7" height="7"></rect>
                    <rect id="Rectangle-path" x="49" y="112" width="7" height="7"></rect>
                    <rect id="Rectangle-path" x="56" y="112" width="7" height="7"></rect>
                    <rect id="Rectangle-path" x="91" y="112" width="7" height="7"></rect>
                    <rect id="Rectangle-path" x="105" y="112" width="7" height="7"></rect>
                    <rect id="Rectangle-path" x="112" y="112" width="7" height="7"></rect>
                    <rect id="Rectangle-path" x="119" y="112" width="7" height="7"></rect>
                    <rect id="Rectangle-path" x="126" y="112" width="7" height="7"></rect>
                    <rect id="Rectangle-path" x="133" y="112" width="7" height="7"></rect>
                    <rect id="Rectangle-path" x="140" y="112" width="7" height="7"></rect>
                    <rect id="Rectangle-path" x="154" y="112" width="7" height="7"></rect>
                    <rect id="Rectangle-path" x="161" y="112" width="7" height="7"></rect>
                    <rect id="Rectangle-path" x="56" y="119" width="7" height="7"></rect>
                    <rect id="Rectangle-path" x="63" y="119" width="7" height="7"></rect>
                    <rect id="Rectangle-path" x="70" y="119" width="7" height="7"></rect>
                    <rect id="Rectangle-path" x="77" y="119" width="7" height="7"></rect>
                    <rect id="Rectangle-path" x="84" y="119" width="7" height="7"></rect>
                    <rect id="Rectangle-path" x="91" y="119" width="7" height="7"></rect>
                    <rect id="Rectangle-path" x="105" y="119" width="7" height="7"></rect>
                    <rect id="Rectangle-path" x="112" y="119" width="7" height="7"></rect>
                    <rect id="Rectangle-path" x="140" y="119" width="7" height="7"></rect>
                    <rect id="Rectangle-path" x="161" y="119" width="7" height="7"></rect>
                    <rect id="Rectangle-path" x="0" y="126" width="7" height="7"></rect>
                    <rect id="Rectangle-path" x="7" y="126" width="7" height="7"></rect>
                    <rect id="Rectangle-path" x="14" y="126" width="7" height="7"></rect>
                    <rect id="Rectangle-path" x="21" y="126" width="7" height="7"></rect>
                    <rect id="Rectangle-path" x="28" y="126" width="7" height="7"></rect>
                    <rect id="Rectangle-path" x="35" y="126" width="7" height="7"></rect>
                    <rect id="Rectangle-path" x="42" y="126" width="7" height="7"></rect>
                    <rect id="Rectangle-path" x="77" y="126" width="7" height="7"></rect>
                    <rect id="Rectangle-path" x="112" y="126" width="7" height="7"></rect>
                    <rect id="Rectangle-path" x="126" y="126" width="7" height="7"></rect>
                    <rect id="Rectangle-path" x="140" y="126" width="7" height="7"></rect>
                    <rect id="Rectangle-path" x="147" y="126" width="7" height="7"></rect>
                    <rect id="Rectangle-path" x="168" y="126" width="7" height="7"></rect>
                    <rect id="Rectangle-path" x="0" y="133" width="7" height="7"></rect>
                    <rect id="Rectangle-path" x="42" y="133" width="7" height="7"></rect>
                    <rect id="Rectangle-path" x="70" y="133" width="7" height="7"></rect>
                    <rect id="Rectangle-path" x="84" y="133" width="7" height="7"></rect>
                    <rect id="Rectangle-path" x="91" y="133" width="7" height="7"></rect>
                    <rect id="Rectangle-path" x="105" y="133" width="7" height="7"></rect>
                    <rect id="Rectangle-path" x="112" y="133" width="7" height="7"></rect>
                    <rect id="Rectangle-path" x="140" y="133" width="7" height="7"></rect>
                    <rect id="Rectangle-path" x="161" y="133" width="7" height="7"></rect>
                    <rect id="Rectangle-path" x="0" y="140" width="7" height="7"></rect>
                    <rect id="Rectangle-path" x="14" y="140" width="7" height="7"></rect>
                    <rect id="Rectangle-path" x="21" y="140" width="7" height="7"></rect>
                    <rect id="Rectangle-path" x="28" y="140" width="7" height="7"></rect>
                    <rect id="Rectangle-path" x="42" y="140" width="7" height="7"></rect>
                    <rect id="Rectangle-path" x="56" y="140" width="7" height="7"></rect>
                    <rect id="Rectangle-path" x="63" y="140" width="7" height="7"></rect>
                    <rect id="Rectangle-path" x="84" y="140" width="7" height="7"></rect>
                    <rect id="Rectangle-path" x="98" y="140" width="7" height="7"></rect>
                    <rect id="Rectangle-path" x="105" y="140" width="7" height="7"></rect>
                    <rect id="Rectangle-path" x="112" y="140" width="7" height="7"></rect>
                    <rect id="Rectangle-path" x="119" y="140" width="7" height="7"></rect>
                    <rect id="Rectangle-path" x="126" y="140" width="7" height="7"></rect>
                    <rect id="Rectangle-path" x="133" y="140" width="7" height="7"></rect>
                    <rect id="Rectangle-path" x="140" y="140" width="7" height="7"></rect>
                    <rect id="Rectangle-path" x="147" y="140" width="7" height="7"></rect>
                    <rect id="Rectangle-path" x="161" y="140" width="7" height="7"></rect>
                    <rect id="Rectangle-path" x="168" y="140" width="7" height="7"></rect>
                    <rect id="Rectangle-path" x="0" y="147" width="7" height="7"></rect>
                    <rect id="Rectangle-path" x="14" y="147" width="7" height="7"></rect>
                    <rect id="Rectangle-path" x="21" y="147" width="7" height="7"></rect>
                    <rect id="Rectangle-path" x="28" y="147" width="7" height="7"></rect>
                    <rect id="Rectangle-path" x="42" y="147" width="7" height="7"></rect>
                    <rect id="Rectangle-path" x="56" y="147" width="7" height="7"></rect>
                    <rect id="Rectangle-path" x="91" y="147" width="7" height="7"></rect>
                    <rect id="Rectangle-path" x="98" y="147" width="7" height="7"></rect>
                    <rect id="Rectangle-path" x="105" y="147" width="7" height="7"></rect>
                    <rect id="Rectangle-path" x="119" y="147" width="7" height="7"></rect>
                    <rect id="Rectangle-path" x="126" y="147" width="7" height="7"></rect>
                    <rect id="Rectangle-path" x="133" y="147" width="7" height="7"></rect>
                    <rect id="Rectangle-path" x="147" y="147" width="7" height="7"></rect>
                    <rect id="Rectangle-path" x="161" y="147" width="7" height="7"></rect>
                    <rect id="Rectangle-path" x="168" y="147" width="7" height="7"></rect>
                    <rect id="Rectangle-path" x="0" y="154" width="7" height="7"></rect>
                    <rect id="Rectangle-path" x="14" y="154" width="7" height="7"></rect>
                    <rect id="Rectangle-path" x="21" y="154" width="7" height="7"></rect>
                    <rect id="Rectangle-path" x="28" y="154" width="7" height="7"></rect>
                    <rect id="Rectangle-path" x="42" y="154" width="7" height="7"></rect>
                    <rect id="Rectangle-path" x="63" y="154" width="7" height="7"></rect>
                    <rect id="Rectangle-path" x="70" y="154" width="7" height="7"></rect>
                    <rect id="Rectangle-path" x="84" y="154" width="7" height="7"></rect>
                    <rect id="Rectangle-path" x="112" y="154" width="7" height="7"></rect>
                    <rect id="Rectangle-path" x="119" y="154" width="7" height="7"></rect>
                    <rect id="Rectangle-path" x="133" y="154" width="7" height="7"></rect>
                    <rect id="Rectangle-path" x="140" y="154" width="7" height="7"></rect>
                    <rect id="Rectangle-path" x="154" y="154" width="7" height="7"></rect>
                    <rect id="Rectangle-path" x="161" y="154" width="7" height="7"></rect>
                    <rect id="Rectangle-path" x="168" y="154" width="7" height="7"></rect>
                    <rect id="Rectangle-path" x="0" y="161" width="7" height="7"></rect>
                    <rect id="Rectangle-path" x="42" y="161" width="7" height="7"></rect>
                    <rect id="Rectangle-path" x="56" y="161" width="7" height="7"></rect>
                    <rect id="Rectangle-path" x="98" y="161" width="7" height="7"></rect>
                    <rect id="Rectangle-path" x="126" y="161" width="7" height="7"></rect>
                    <rect id="Rectangle-path" x="133" y="161" width="7" height="7"></rect>
                    <rect id="Rectangle-path" x="140" y="161" width="7" height="7"></rect>
                    <rect id="Rectangle-path" x="154" y="161" width="7" height="7"></rect>
                    <rect id="Rectangle-path" x="161" y="161" width="7" height="7"></rect>
                    <rect id="Rectangle-path" x="168" y="161" width="7" height="7"></rect>
                    <rect id="Rectangle-path" x="0" y="168" width="7" height="7"></rect>
                    <rect id="Rectangle-path" x="7" y="168" width="7" height="7"></rect>
                    <rect id="Rectangle-path" x="14" y="168" width="7" height="7"></rect>
                    <rect id="Rectangle-path" x="21" y="168" width="7" height="7"></rect>
                    <rect id="Rectangle-path" x="28" y="168" width="7" height="7"></rect>
                    <rect id="Rectangle-path" x="35" y="168" width="7" height="7"></rect>
                    <rect id="Rectangle-path" x="42" y="168" width="7" height="7"></rect>
                    <rect id="Rectangle-path" x="56" y="168" width="7" height="7"></rect>
                    <rect id="Rectangle-path" x="63" y="168" width="7" height="7"></rect>
                    <rect id="Rectangle-path" x="84" y="168" width="7" height="7"></rect>
                    <rect id="Rectangle-path" x="91" y="168" width="7" height="7"></rect>
                    <rect id="Rectangle-path" x="98" y="168" width="7" height="7"></rect>
                    <rect id="Rectangle-path" x="112" y="168" width="7" height="7"></rect>
                    <rect id="Rectangle-path" x="119" y="168" width="7" height="7"></rect>
                    <rect id="Rectangle-path" x="147" y="168" width="7" height="7"></rect>
                    <rect id="Rectangle-path" x="168" y="168" width="7" height="7"></rect>
                </g>
            </g>
        </g>
    </g>
</svg>
